<svg width="218" height="207" viewBox="0 0 218 207" fill="none" xmlns="http://www.w3.org/2000/svg">
<path d="M135.646 3.78991C130.325 -1.2633 121.685 -1.2633 116.364 3.78991L65.2851 52.3008C59.9644 57.354 59.9644 65.5604 65.2851 70.6137L72.0956 77.0818C77.4163 82.135 86.0571 82.135 91.3778 77.0818L93.0804 75.4647L138.541 118.599L136.838 120.216C131.517 125.269 131.517 133.476 136.838 138.529L143.648 144.997C148.969 150.05 157.61 150.05 162.931 144.997L214.009 96.4861C219.33 91.4329 219.33 83.2265 214.009 78.1733L207.199 71.7051C201.878 66.6519 193.237 66.6519 187.917 71.7051L186.214 73.3222L140.754 30.1475L142.457 28.5305C147.777 23.4772 147.777 15.2708 142.457 10.2176L135.646 3.74949V3.78991ZM70.9463 120.216C65.6256 115.163 56.9848 115.163 51.6641 120.216L3.99053 165.493C-1.33018 170.546 -1.33018 178.753 3.99053 183.806L24.422 203.21C29.7428 208.263 38.3836 208.263 43.7043 203.21L91.3778 157.933C96.6985 152.88 96.6985 144.674 91.3778 139.62L90.7819 139.054L115.811 115.325L96.5283 97.0117L71.5422 120.742L70.9463 120.176V120.216Z" fill="#BA9D57" fill-opacity="0.65"/>
</svg>
