<svg width="213" height="237" viewBox="0 0 213 237" fill="none" xmlns="http://www.w3.org/2000/svg">
<path d="M92.3351 18.5532L134.511 0.972258C140.343 -1.45885 146.775 1.98749 148.903 8.68437C151.031 15.3812 148.039 22.7558 142.207 25.1869L104.775 40.79C106.164 51.2658 102.893 61.7558 96.3764 68.8428L131.812 180.344L184.532 158.368C190.364 155.937 196.795 159.383 198.923 166.08C201.052 172.777 198.059 180.151 192.227 182.582L128.963 208.954L65.6991 235.325C59.8669 237.756 53.4356 234.31 51.3074 227.613C49.1791 220.916 52.1715 213.542 58.0036 211.11L110.724 189.134L75.2884 77.6333C66.3067 76.964 57.9134 71.3361 53.1098 62.3266L15.6786 77.9297C9.84648 80.3608 3.41518 76.9145 1.28691 70.2176C-0.841364 63.5207 2.15103 56.1461 7.98318 53.715L50.1592 36.1341C52.6372 26.7887 58.7665 18.8349 67.3994 15.2363C76.0323 11.6377 85.1917 13.2184 92.3351 18.5532ZM145.285 119.883L192.996 99.9941L154.207 62.9467L145.285 119.883ZM180.684 146.26C159.958 154.9 138.637 149.219 129.68 133.714C127.5 129.91 127.328 125.14 128.028 120.649L139.773 45.8257C140.386 41.8851 142.792 38.6541 146.054 37.2943C149.316 35.9345 152.985 36.6762 155.655 39.2054L206.646 87.8771C209.703 90.802 212.248 94.583 212.714 99.102C214.554 117.573 201.409 137.621 180.684 146.26ZM27.2833 115.854L18.3615 172.79L66.1061 152.888L27.2833 115.854ZM2.78942 186.608C0.610065 182.803 0.437534 178.034 1.13732 173.543L12.8823 98.7196C13.4957 94.779 15.9019 91.5479 19.1639 90.1881C22.426 88.8283 26.0946 89.57 28.7642 92.0993L79.756 140.771C82.8125 143.696 85.3574 147.477 85.8234 151.996C87.6307 170.481 74.486 190.529 53.7605 199.168C33.035 207.807 11.7469 202.113 2.78942 186.608Z" fill="#BA9D57" fill-opacity="0.65"/>
</svg>
