<svg width="270" height="293" viewBox="0 0 270 293" fill="none" xmlns="http://www.w3.org/2000/svg">
<path d="M101.383 256.959C84.6742 250.369 68.5923 244.086 52.5458 237.686C28.3991 228.055 17.3624 204.391 25.1063 178.422C38.514 133.459 52.0144 88.5324 65.6281 43.651C73.4741 17.7843 94.94 6.95477 119.187 16.4759C160.335 32.6333 201.454 48.8852 242.577 65.1248C253.724 69.5266 256.69 75.9502 253.078 87.9929C239.877 132.006 226.64 176.006 213.395 220.002C209.999 231.283 206.977 233.413 195.408 232.756C192.808 241.404 190.188 250.121 187.409 259.364C187.952 259.794 188.633 260.307 189.29 260.854C196.395 266.768 198.27 273.311 194.977 280.678C191.788 287.812 185.52 290.088 177.221 286.842C155.781 278.456 134.372 269.968 112.951 261.52C109.309 260.084 105.668 258.648 101.383 256.959ZM187.053 83.5401C186.065 81.4221 185.529 78.7417 184.014 77.2794C175.573 69.1342 165.755 64.3025 154.678 62.7544C134.811 59.9778 124.345 78.3748 132.237 94.9682C116.515 105.938 115.845 120.252 130.464 134.259C132.511 136.22 134.814 137.862 137.018 139.623C142.17 143.738 147.591 147.514 152.367 152.099C154.277 153.933 156.384 158.732 155.57 160.071C154.024 162.613 150.373 165.191 147.712 164.949C142.715 164.493 137.496 162.739 132.932 160.233C127.914 157.478 123.807 152.589 118.756 149.971C116.163 148.627 111.389 148.919 109.355 150.753C106.015 153.763 106.892 158.755 110.822 161.369C120.099 167.54 129.306 174.231 139.25 178.655C148.155 182.617 157.682 181.75 164.673 173.469C171.016 165.956 171.786 157.175 167.533 148.418C170.452 145.563 173.479 143.394 175.557 140.419C181.459 131.972 181.157 121.402 173.747 113.785C166.161 105.989 157.253 99.7498 149.387 92.2454C146.861 89.835 145.808 85.5692 144.082 82.1522C147.564 80.6973 151.481 77.2825 154.441 78.1792C161.461 80.3055 168.22 84.0721 174.723 87.9363C181.111 91.732 183.519 91.4571 187.053 83.5401ZM136.061 239.698C144.518 243.033 152.975 246.368 161.342 249.667C164.274 239.912 166.926 231.092 169.66 222C135.573 208.558 101.98 195.294 68.3758 182.07C59.3563 178.52 52.5009 181.489 49.8248 189.964C47.0613 198.716 50.9188 206.103 60.285 209.806C85.1089 219.622 109.944 229.399 136.061 239.698Z" fill="#207E34" fill-opacity="0.65"/>
<path d="M187.012 84.0725C183.519 91.4577 181.111 91.7326 174.723 87.9369C168.22 84.0727 161.461 80.3061 154.441 78.1798C151.481 77.2831 147.564 80.6979 144.081 82.1528C145.808 85.5698 146.861 89.8356 149.387 92.246C157.253 99.7504 166.161 105.989 173.747 113.786C181.157 121.403 181.459 131.973 175.557 140.42C173.479 143.394 170.451 145.564 167.533 148.418C171.786 157.176 171.016 165.956 164.673 173.47C157.682 181.75 148.154 182.617 139.25 178.656C129.306 174.232 120.099 167.541 110.822 161.37C106.892 158.756 106.015 153.764 109.355 150.753C111.388 148.92 116.163 148.627 118.756 149.971C123.807 152.589 127.914 157.478 132.932 160.233C137.496 162.739 142.714 164.493 147.712 164.949C150.373 165.192 154.024 162.613 155.569 160.072C156.384 158.733 154.277 153.933 152.366 152.099C147.591 147.515 142.17 143.739 137.018 139.623C134.814 137.863 132.511 136.221 130.464 134.26C115.845 120.253 116.514 105.939 132.237 94.9688C124.345 78.3754 134.811 59.9784 154.678 62.755C165.755 64.3031 175.573 69.1348 184.014 77.28C185.529 78.7423 186.065 81.4227 187.012 84.0725ZM164.647 124.414C159.935 120.149 155.461 115.488 150.415 111.784C147.815 109.875 144.151 108.872 141.055 108.956C138.805 109.016 135.556 111.031 134.859 113.096C134.201 115.044 135.629 119.007 137.309 120.66C141.86 125.139 146.772 129.363 152.025 132.757C158.442 136.905 165.053 132.853 164.647 124.414Z" fill="#F9F9FA"/>
<path d="M164.868 124.911C165.053 132.852 158.442 136.904 152.025 132.756C146.772 129.362 141.86 125.138 137.309 120.659C135.629 119.006 134.202 115.043 134.859 113.095C135.556 111.03 138.806 109.016 141.055 108.955C144.151 108.871 147.815 109.874 150.415 111.783C155.461 115.487 159.936 120.148 164.868 124.911Z" fill="#207E34" fill-opacity="0.65"/>
</svg>
