<svg width="59" height="78" viewBox="0 0 59 78" fill="none" xmlns="http://www.w3.org/2000/svg">
<g clip-path="url(#clip0_15_14)">
<path d="M7.75 0.104004C3.7474 0.104004 0.5 3.3374 0.5 7.32275V69.8853C0.5 73.8706 3.7474 77.104 7.75 77.104H22.25V65.0728C22.25 61.0874 25.4974 57.854 29.5 57.854C33.5026 57.854 36.75 61.0874 36.75 65.0728V77.104H51.25C55.2526 77.104 58.5 73.8706 58.5 69.8853V7.32275C58.5 3.3374 55.2526 0.104004 51.25 0.104004H7.75ZM10.1667 36.1978C10.1667 34.8743 11.2542 33.7915 12.5833 33.7915H17.4167C18.7458 33.7915 19.8333 34.8743 19.8333 36.1978V41.0103C19.8333 42.3337 18.7458 43.4165 17.4167 43.4165H12.5833C11.2542 43.4165 10.1667 42.3337 10.1667 41.0103V36.1978ZM27.0833 33.7915H31.9167C33.2458 33.7915 34.3333 34.8743 34.3333 36.1978V41.0103C34.3333 42.3337 33.2458 43.4165 31.9167 43.4165H27.0833C25.7542 43.4165 24.6667 42.3337 24.6667 41.0103V36.1978C24.6667 34.8743 25.7542 33.7915 27.0833 33.7915ZM39.1667 36.1978C39.1667 34.8743 40.2542 33.7915 41.5833 33.7915H46.4167C47.7458 33.7915 48.8333 34.8743 48.8333 36.1978V41.0103C48.8333 42.3337 47.7458 43.4165 46.4167 43.4165H41.5833C40.2542 43.4165 39.1667 42.3337 39.1667 41.0103V36.1978ZM12.5833 14.5415H17.4167C18.7458 14.5415 19.8333 15.6243 19.8333 16.9478V21.7603C19.8333 23.0837 18.7458 24.1665 17.4167 24.1665H12.5833C11.2542 24.1665 10.1667 23.0837 10.1667 21.7603V16.9478C10.1667 15.6243 11.2542 14.5415 12.5833 14.5415ZM24.6667 16.9478C24.6667 15.6243 25.7542 14.5415 27.0833 14.5415H31.9167C33.2458 14.5415 34.3333 15.6243 34.3333 16.9478V21.7603C34.3333 23.0837 33.2458 24.1665 31.9167 24.1665H27.0833C25.7542 24.1665 24.6667 23.0837 24.6667 21.7603V16.9478ZM41.5833 14.5415H46.4167C47.7458 14.5415 48.8333 15.6243 48.8333 16.9478V21.7603C48.8333 23.0837 47.7458 24.1665 46.4167 24.1665H41.5833C40.2542 24.1665 39.1667 23.0837 39.1667 21.7603V16.9478C39.1667 15.6243 40.2542 14.5415 41.5833 14.5415Z" fill="#BA9D57"/>
</g>
<defs>
<clipPath id="clip0_15_14">
<rect width="58" height="77" fill="white" transform="translate(0.5 0.104004)"/>
</clipPath>
</defs>
</svg>
