<svg width="69" height="76" viewBox="0 0 69 76" fill="none" xmlns="http://www.w3.org/2000/svg">
<path d="M69 51.0464C68.8877 55.2324 67.8005 56.0165 61.383 56.5765C61.383 59.4459 61.383 62.3473 61.383 65.2488C61.383 72.8193 59.2601 74.9677 51.6068 74.8712C49.958 74.8504 48.2884 74.4184 46.6797 73.9855C45.5378 73.6781 45.0074 72.847 45.2496 71.5099C45.4528 70.3881 45.3951 69.2067 45.3533 68.0553C45.2358 64.8256 45.6594 62.0525 47.7609 59.1259C52.4796 52.5547 50.1848 41.6284 43.6746 36.6569C43.065 36.1913 42.4217 35.7698 41.4843 35.1097C44.2203 32.6395 45.3377 29.4919 45.4576 25.906C45.4722 25.4678 46.3222 24.8171 46.8873 24.6768C50.5966 23.7559 54.3765 23.4953 58.0022 24.8588C60.7218 25.8815 62.4975 27.9926 63.3021 30.8655C65.1706 37.5366 67.0739 44.198 69 51.0464Z" fill="#BA9D57"/>
<path d="M20.9742 73.9785C17.7924 74.2772 14.7268 74.9231 11.7641 74.6061C8.09047 74.213 6.16975 71.4887 6.11172 67.5937C6.04068 62.8245 6.05182 58.0528 6.12079 53.2835C6.14041 51.9267 5.85976 51.1157 4.52908 50.3917C1.35357 48.6642 -0.152861 45.7968 0.0122294 42.1734C0.127676 39.6396 0.354382 37.107 0.635681 34.5855C1.29945 28.6356 5.33259 24.6006 11.3834 24.1481C14.8645 23.8878 18.381 24.1009 22.0558 24.1009C21.9584 28.6408 22.814 32.2191 25.9451 35.0551C24.9227 35.8264 23.9864 36.4636 23.1272 37.1919C16.2548 43.0169 15.3462 54.4929 21.1995 61.3406C21.2493 61.3989 21.3139 61.4446 21.3626 61.5036C22.567 62.962 22.3878 72.7195 20.9742 73.9785Z" fill="#BA9D57"/>
<path d="M39.9182 72.7676C37.6078 75.2109 31.0162 75.9798 28.7326 73.9021C27.7361 72.9956 27.1106 71.3075 26.9733 69.9098C26.7036 67.1635 26.9917 64.3667 26.8379 61.6025C26.7865 60.6798 26.3198 59.5429 25.6517 58.9315C22.1355 55.7134 21.0966 49.6737 23.3525 44.5965C25.28 40.2587 30.2514 37.3933 34.7802 38.0098C40.427 38.7786 44.2737 42.3158 45.0141 47.7109C45.6216 52.137 45.3407 56.3649 41.2352 59.3487C40.808 59.6593 40.6261 60.5299 40.6115 61.1473C40.5464 63.9185 40.6339 66.6934 40.5567 69.464C40.5274 70.5164 40.2038 71.5607 39.9182 72.7676Z" fill="#BA9D57"/>
<path d="M21.8568 16.4944C18.3058 19.6649 14.5519 20.2548 10.9445 18.3118C7.69762 16.563 5.65471 12.5822 6.18154 9.03078C6.78471 4.96468 9.69033 1.95257 13.8142 1.11835C20.0456 -0.142182 25.9275 6.38447 24.019 12.5467C23.5988 13.9035 22.6683 15.1023 21.8568 16.4944Z" fill="#BA9D57"/>
<path d="M59.2748 15.9868C55.8528 19.4871 52.1365 20.3038 48.3192 18.503C44.9258 16.9021 42.6695 12.8796 43.1229 9.23952C43.6394 5.0938 46.6066 1.95752 50.8097 1.11486C57.0412 -0.134479 62.8913 6.39992 61.0028 12.5681C60.6497 13.7214 59.9302 14.7625 59.2748 15.9868Z" fill="#BA9D57"/>
<path d="M32.8692 33.2218C28.829 32.0312 26.915 29.8105 26.8783 26.4501C26.8448 23.3804 28.7129 20.812 31.6647 19.8694C35.2871 18.7126 39.1875 20.7248 40.2725 24.31C41.4009 28.0382 39.4716 31.7537 35.7556 32.8752C34.895 33.1349 33.9564 33.1364 32.8692 33.2218Z" fill="#BA9D57"/>
</svg>
