<svg width="87" height="70" viewBox="0 0 87 70" fill="none" xmlns="http://www.w3.org/2000/svg">
<g clip-path="url(#clip0_11_42)">
<path d="M13.05 4.65395C13.05 2.24786 11.1061 0.303955 8.7 0.303955C6.2939 0.303955 4.35 2.24786 4.35 4.65395V13.354V21.3879V21.483V26.404V29.381C4.35 31.3113 5.04328 33.1736 6.2939 34.6418L17.8894 48.154H17.4C15.592 48.154 14.1375 49.6085 14.1375 51.4165C14.1375 53.2244 15.592 54.679 17.4 54.679H21.75H39.15H47.85H65.25H69.6C71.408 54.679 72.8625 53.2244 72.8625 51.4165C72.8625 49.6085 71.408 48.154 69.6 48.154H69.1106L80.7061 34.6282C81.9567 33.16 82.65 31.2977 82.65 29.3674V26.404V21.483V21.3879V13.354V4.65395C82.65 2.24786 80.7061 0.303955 78.3 0.303955C75.8939 0.303955 73.95 2.24786 73.95 4.65395V13.354V19.9877L64.5295 32.5483C63.7547 33.5815 62.3409 33.8533 61.2398 33.2008C59.9213 32.426 59.595 30.6588 60.5466 29.4625L64.2984 24.7727C65.7666 22.9375 65.5083 20.246 63.7003 18.7235C61.8923 17.201 59.2144 17.3913 57.6511 19.1585L51.3028 26.2952C49.0734 28.81 47.85 32.0318 47.85 35.3894V43.804V48.154H39.15V43.804V35.3894C39.15 32.0454 37.9266 28.81 35.6972 26.3088L29.3489 19.1721C27.7856 17.4049 25.0941 17.2146 23.2997 18.7371C21.5053 20.2596 21.2334 22.9375 22.7016 24.7863L26.4534 29.4761C27.405 30.6724 27.0923 32.4396 25.7602 33.2144C24.6591 33.8669 23.2317 33.5815 22.4705 32.5619L13.05 19.9877V13.354V4.65395ZM21.75 65.554V69.904H39.15V65.554H47.85V69.904H65.25V65.554H69.6C71.408 65.554 72.8625 64.0994 72.8625 62.2915C72.8625 60.4835 71.408 59.029 69.6 59.029H65.25H47.85H39.15H21.75H17.4C15.592 59.029 14.1375 60.4835 14.1375 62.2915C14.1375 64.0994 15.592 65.554 17.4 65.554H21.75Z" fill="#BA9D57"/>
</g>
<defs>
<clipPath id="clip0_11_42">
<rect width="87" height="69.6" fill="white" transform="translate(0 0.303955)"/>
</clipPath>
</defs>
</svg>
