<svg width="14" height="28" viewBox="0 0 14 28" fill="none" xmlns="http://www.w3.org/2000/svg">
<path d="M5.21374 14.3077L12.9542 23.6452C13.3181 24.0842 13.5 24.6428 13.5 25.3212C13.5 25.9995 13.3181 26.5582 12.9542 26.9971C12.5903 27.4361 12.1272 27.6555 11.5649 27.6555C11.0025 27.6555 10.5394 27.4361 10.1756 26.9971L1.0458 15.9837C0.847328 15.7443 0.706743 15.4849 0.624046 15.2056C0.541349 14.9263 0.5 14.627 0.5 14.3077C0.5 13.9885 0.541349 13.6892 0.624046 13.4099C0.706743 13.1306 0.847328 12.8712 1.0458 12.6318L10.1756 1.61837C10.5394 1.17943 11.0025 0.959961 11.5649 0.959961C12.1272 0.959961 12.5903 1.17943 12.9542 1.61837C13.3181 2.05731 13.5 2.61596 13.5 3.29433C13.5 3.97269 13.3181 4.53134 12.9542 4.97028L5.21374 14.3077Z" fill="#505050"/>
</svg>
