<svg width="87" height="70" viewBox="0 0 87 70" fill="none" xmlns="http://www.w3.org/2000/svg">
<g clip-path="url(#clip0_15_23)">
<path d="M72.7266 5.62933C71.4487 4.36253 71.4487 2.31409 72.7266 1.06077C74.0044 -0.192547 76.0706 -0.206024 77.3348 1.06077L86.0348 9.68577C86.6466 10.2922 86.9864 11.1143 86.9864 11.9768C86.9864 12.8393 86.6466 13.6614 86.0348 14.2678L77.3348 22.8928C76.057 24.1596 73.9908 24.1596 72.7266 22.8928C71.4623 21.626 71.4487 19.5776 72.7266 18.3242L75.8531 15.2246L52.2 15.1977C50.392 15.1977 48.9375 13.7557 48.9375 11.9633C48.9375 10.1709 50.392 8.72894 52.2 8.72894H75.8667L72.7266 5.62933ZM14.2734 50.9106L11.1469 54.0102H34.8C36.608 54.0102 38.0625 55.4522 38.0625 57.2446C38.0625 59.0369 36.608 60.4789 34.8 60.4789H11.1333L14.2598 63.5785C15.5377 64.8453 15.5377 66.8938 14.2598 68.1471C12.982 69.4004 10.9158 69.4139 9.65156 68.1471L0.951562 59.5356C0.339844 58.9291 0 58.1071 0 57.2446C0 56.3821 0.339844 55.56 0.951562 54.9535L9.65156 46.3285C10.9294 45.0617 12.9956 45.0617 14.2598 46.3285C15.5241 47.5953 15.5377 49.6438 14.2598 50.8971L14.2734 50.9106ZM13.05 8.72894H45.9333C45.4303 9.69925 45.1312 10.7909 45.1312 11.9633C45.1312 15.8311 48.2986 18.9711 52.2 18.9711H68.1591C67.6153 21.2621 68.2406 23.7553 70.035 25.5477C72.7945 28.2834 77.2669 28.2834 80.0264 25.5477L82.65 22.9467V51.8539C82.65 56.6112 78.7486 60.4789 73.95 60.4789H41.0667C41.5697 59.5086 41.8687 58.417 41.8687 57.2446C41.8687 53.3768 38.7014 50.2367 34.8 50.2367H18.8409C19.3847 47.9457 18.7594 45.4526 16.965 43.6602C14.2055 40.9244 9.73312 40.9244 6.97359 43.6602L4.35 46.2612V17.3539C4.35 12.5967 8.25141 8.72894 13.05 8.72894ZM21.75 17.3539H13.05V25.9789C17.8486 25.9789 21.75 22.1112 21.75 17.3539ZM73.95 43.2289C69.1514 43.2289 65.25 47.0967 65.25 51.8539H73.95V43.2289ZM43.5 47.5414C46.9611 47.5414 50.2804 46.1784 52.7277 43.7521C55.1751 41.3259 56.55 38.0352 56.55 34.6039C56.55 31.1727 55.1751 27.882 52.7277 25.4557C50.2804 23.0295 46.9611 21.6664 43.5 21.6664C40.0389 21.6664 36.7196 23.0295 34.2723 25.4557C31.8249 27.882 30.45 31.1727 30.45 34.6039C30.45 38.0352 31.8249 41.3259 34.2723 43.7521C36.7196 46.1784 40.0389 47.5414 43.5 47.5414Z" fill="#BA9D57"/>
</g>
<defs>
<clipPath id="clip0_15_23">
<rect width="87" height="69" fill="white" transform="translate(0 0.104004)"/>
</clipPath>
</defs>
</svg>
