<svg width="87" height="44" viewBox="0 0 87 44" fill="none" xmlns="http://www.w3.org/2000/svg">
<path d="M3.625 43.71C2.59792 43.71 1.73698 43.3626 1.04219 42.6678C0.347396 41.973 0 41.112 0 40.085V38.0006C0 35.4027 1.32917 33.2881 3.9875 31.6568C6.64583 30.0256 10.15 29.21 14.5 29.21C15.2854 29.21 16.0406 29.2251 16.7656 29.2553C17.4906 29.2855 18.1854 29.361 18.85 29.4818C18.0042 30.7506 17.3698 32.0798 16.9469 33.4693C16.524 34.8589 16.3125 36.3089 16.3125 37.8193V43.71H3.625ZM25.375 43.71C24.3479 43.71 23.487 43.3626 22.7922 42.6678C22.0974 41.973 21.75 41.112 21.75 40.085V37.8193C21.75 35.886 22.2786 34.1188 23.3359 32.5178C24.3932 30.9167 25.8885 29.512 27.8219 28.3037C29.7552 27.0954 32.0661 26.1891 34.7547 25.585C37.4432 24.9808 40.3583 24.6787 43.5 24.6787C46.7021 24.6787 49.6474 24.9808 52.3359 25.585C55.0245 26.1891 57.3354 27.0954 59.2688 28.3037C61.2021 29.512 62.6823 30.9167 63.7094 32.5178C64.7365 34.1188 65.25 35.886 65.25 37.8193V40.085C65.25 41.112 64.9026 41.973 64.2078 42.6678C63.513 43.3626 62.6521 43.71 61.625 43.71H25.375ZM70.6875 43.71V37.8193C70.6875 36.2485 70.4911 34.7683 70.0984 33.3787C69.7057 31.9891 69.1167 30.6902 68.3313 29.4818C68.9958 29.361 69.6755 29.2855 70.3703 29.2553C71.0651 29.2251 71.775 29.21 72.5 29.21C76.85 29.21 80.3542 30.0105 83.0125 31.6115C85.6708 33.2126 87 35.3423 87 38.0006V40.085C87 41.112 86.6526 41.973 85.9578 42.6678C85.263 43.3626 84.4021 43.71 83.375 43.71H70.6875ZM14.5 25.585C12.5063 25.585 10.7995 24.8751 9.37969 23.4553C7.9599 22.0355 7.25 20.3287 7.25 18.335C7.25 16.2808 7.9599 14.5589 9.37969 13.1693C10.7995 11.7798 12.5063 11.085 14.5 11.085C16.5542 11.085 18.276 11.7798 19.6656 13.1693C21.0552 14.5589 21.75 16.2808 21.75 18.335C21.75 20.3287 21.0552 22.0355 19.6656 23.4553C18.276 24.8751 16.5542 25.585 14.5 25.585ZM72.5 25.585C70.5063 25.585 68.7995 24.8751 67.3797 23.4553C65.9599 22.0355 65.25 20.3287 65.25 18.335C65.25 16.2808 65.9599 14.5589 67.3797 13.1693C68.7995 11.7798 70.5063 11.085 72.5 11.085C74.5542 11.085 76.276 11.7798 77.6656 13.1693C79.0552 14.5589 79.75 16.2808 79.75 18.335C79.75 20.3287 79.0552 22.0355 77.6656 23.4553C76.276 24.8751 74.5542 25.585 72.5 25.585ZM43.5 21.96C40.4792 21.96 37.9115 20.9027 35.7969 18.7881C33.6823 16.6735 32.625 14.1058 32.625 11.085C32.625 8.00371 33.6823 5.4209 35.7969 3.33652C37.9115 1.25215 40.4792 0.209961 43.5 0.209961C46.5813 0.209961 49.1641 1.25215 51.2484 3.33652C53.3328 5.4209 54.375 8.00371 54.375 11.085C54.375 14.1058 53.3328 16.6735 51.2484 18.7881C49.1641 20.9027 46.5813 21.96 43.5 21.96Z" fill="#BA9D57"/>
</svg>
