<svg width="23" height="24" viewBox="0 0 23 24" fill="none" xmlns="http://www.w3.org/2000/svg">
<g clip-path="url(#clip0_23_120)">
<path d="M7.40762 1.70912C7.06172 0.873571 6.14981 0.428845 5.27832 0.666931L1.3252 1.74506C0.543555 1.96068 0 2.67045 0 3.47904C0 14.5927 9.01133 23.604 20.125 23.604C20.9336 23.604 21.6434 23.0605 21.859 22.2788L22.9371 18.3257C23.1752 17.4542 22.7305 16.5423 21.8949 16.1964L17.5824 14.3995C16.8502 14.0941 16.0012 14.3052 15.5025 14.9206L13.6877 17.1353C10.5252 15.6394 7.96465 13.0788 6.46875 9.91635L8.6834 8.10599C9.29883 7.60287 9.50996 6.75834 9.20449 6.02611L7.40762 1.71361V1.70912Z" fill="#B02323"/>
</g>
<defs>
<clipPath id="clip0_23_120">
<rect width="23" height="23" fill="white" transform="translate(0 0.604004)"/>
</clipPath>
</defs>
</svg>
