<svg width="14" height="28" viewBox="0 0 14 28" fill="none" xmlns="http://www.w3.org/2000/svg">
<path d="M8.78626 14.3077L1.0458 4.97028C0.681934 4.53134 0.5 3.97269 0.5 3.29433C0.5 2.61596 0.681934 2.05731 1.0458 1.61837C1.40967 1.17943 1.87277 0.959961 2.43511 0.959961C2.99746 0.959961 3.46056 1.17943 3.82443 1.61837L12.9542 12.6318C13.1527 12.8712 13.2933 13.1306 13.376 13.4099C13.4587 13.6892 13.5 13.9885 13.5 14.3077C13.5 14.627 13.4587 14.9263 13.376 15.2056C13.2933 15.4849 13.1527 15.7443 12.9542 15.9837L3.82443 26.9971C3.46056 27.4361 2.99746 27.6555 2.43511 27.6555C1.87277 27.6555 1.40967 27.4361 1.0458 26.9971C0.681934 26.5582 0.5 25.9995 0.5 25.3212C0.5 24.6428 0.681934 24.0842 1.0458 23.6452L8.78626 14.3077Z" fill="#505050"/>
</svg>
