<svg width="48" height="46" viewBox="0 0 48 46" fill="none" xmlns="http://www.w3.org/2000/svg">
<path d="M23.8754 0.0119629C23.8754 0.0237694 23.6195 0.8265 23.3046 1.79449C22.9897 2.76249 22.7339 3.5967 22.7339 3.64786C22.7339 3.7659 23.1157 5.28086 23.1905 5.46187C23.2574 5.6232 23.2653 6.32362 23.2023 6.46528C23.1511 6.57152 23.0645 6.60694 22.8323 6.60694C22.5922 6.60694 22.3954 6.49282 22.0136 6.14261C21.5058 5.67829 20.8682 5.39104 20.0573 5.25331C19.2465 5.11953 17.9475 5.07231 17.243 5.151C16.2117 5.26905 15.6528 5.44613 12.4802 6.67776C10.2445 7.54345 9.70526 7.68118 8.5441 7.68511C7.9025 7.68905 7.86708 7.68511 7.62697 7.58281C7.48921 7.52378 7.27272 7.45689 7.14676 7.42934C6.94996 7.38999 6.90666 7.39393 6.81219 7.45689C6.66656 7.55132 6.61932 7.68511 6.69017 7.82284C6.74921 7.93695 6.96177 8.05106 7.57187 8.3029C7.93793 8.45243 8.07569 8.55474 8.11506 8.71214C8.13474 8.79477 7.3357 11.0416 4.58827 18.64C2.63201 24.0427 0.907977 28.8118 0.758404 29.2329C0.604894 29.6539 0.447448 30.0474 0.408087 30.1064C0.368726 30.1655 0.266386 30.2324 0.167982 30.2638C-0.0918033 30.3465 -0.0642502 30.4449 0.349045 30.917C0.730851 31.3538 1.51414 32.1211 1.98254 32.5225C3.25392 33.6085 4.85987 34.2303 7.22549 34.5529C7.45772 34.5844 8.00091 34.6041 8.66218 34.6002C9.54388 34.6002 9.81547 34.5844 10.2563 34.5175C12.3307 34.1949 14.2672 33.4039 15.5504 32.3651C16.1645 31.8654 16.6919 31.3184 17.1131 30.74C17.3611 30.3976 17.3571 30.3583 17.0777 30.2953C16.7824 30.2324 16.7234 30.2009 16.6486 30.0553C16.5974 29.949 15.1726 26.0613 10.1028 12.1867C9.37069 10.1877 8.95739 8.99939 8.95739 8.90495V8.75935L9.44154 8.78296C10.8822 8.86166 12.0591 8.89314 12.4409 8.87347C12.681 8.86166 13.2714 8.7869 13.7595 8.71214C14.2476 8.63343 14.9285 8.52719 15.2749 8.4721C16.0464 8.35012 16.9399 8.3147 17.6799 8.37373C18.6442 8.44849 19.1323 8.62556 19.5141 9.03873C19.7621 9.31025 20.0298 9.80605 20.2148 10.3333L20.3447 10.6993H21.7735H23.2062V10.9432C23.2062 11.8168 23.0094 13.013 22.5607 14.8703C22.1395 16.6292 22.0215 17.4713 22.0136 18.8249C22.0096 19.6395 22.0215 19.8441 22.0962 20.3202C22.2222 21.0915 22.4308 21.906 22.663 22.5592C23.0842 23.7476 23.1433 24.0388 23.1393 24.9635C23.1354 26.081 23.0016 26.8168 22.5568 28.1783C22.1395 29.4532 22.0215 30.1733 22.0254 31.4522C22.0254 32.6956 22.0923 33.1639 22.5843 35.2927L22.8598 36.4929L22.7654 36.548C22.7181 36.5794 22.5489 36.729 22.3954 36.8824C21.9191 37.3625 21.7105 37.9291 21.7105 38.7555C21.7105 39.2827 21.7538 39.4598 22.0057 39.9753C22.2064 40.3885 22.2458 40.5734 22.1828 40.8056C22.0372 41.3486 20.9744 41.809 19.5063 41.9624C18.5813 42.0608 17.5815 42.0293 16.4361 41.8601C15.3851 41.7067 15.0269 41.6673 14.3578 41.6319C13.5194 41.5926 12.7873 41.6358 12.2913 41.7618C11.1656 42.049 10.8507 42.533 10.8467 43.9614C10.8467 44.7051 10.8664 44.772 11.2128 45.1183L11.4529 45.3662H24.0328H36.6127L36.7151 45.2599C36.9591 44.9963 37.0969 44.5556 37.1284 43.9417C37.1795 42.9108 36.8883 42.3127 36.1758 41.9782C35.5264 41.6752 34.8021 41.5729 33.6685 41.6319C32.9167 41.6673 32.6097 41.7027 31.665 41.8641C30.5944 42.0411 29.9567 42.0805 28.8743 42.0372L27.9493 41.9979L27.4573 41.8326C26.7684 41.6004 26.1229 41.2778 25.8828 41.0456C25.6939 40.8607 25.686 40.8489 25.686 40.6364C25.686 40.3412 25.7608 40.113 25.9733 39.7707C26.0717 39.6133 26.178 39.389 26.2134 39.2709C26.2922 38.9994 26.2961 38.3856 26.2174 38.055C26.1032 37.5789 25.7687 37.0477 25.3514 36.6817C25.2333 36.5794 25.1349 36.4614 25.1349 36.422C25.1349 36.3827 25.2058 36.0679 25.2924 35.7256C25.9064 33.2859 26.0206 31.6489 25.7017 29.9018C25.6466 29.6106 25.501 28.9378 25.3711 28.4065C24.8948 26.4233 24.7768 25.5026 24.8555 24.4441C24.9066 23.7712 24.9972 23.3383 25.3711 21.9139C25.9261 19.8166 26.0166 19.2027 25.9537 17.9514C25.9104 17.0503 25.7608 16.3105 25.3908 15.2127C24.8752 13.6741 24.6902 12.5094 24.761 11.2384L24.7886 10.6993H26.1583C27.2054 10.6993 27.536 10.6875 27.5675 10.6481C27.5911 10.6245 27.7131 10.3687 27.843 10.0815C28.3508 8.96397 28.7444 8.57441 29.5355 8.43275C29.9921 8.35405 31.3698 8.31864 31.8657 8.37373C32.094 8.40127 32.8419 8.50752 33.5307 8.61376C35.3571 8.89708 35.546 8.90888 36.8686 8.85379C37.4826 8.83018 38.1951 8.7987 38.4509 8.78296L38.9114 8.75935V8.86953C38.9114 8.93249 38.4155 10.3569 37.8133 12.0332C37.2071 13.7135 35.5067 18.4433 34.0306 22.5435C32.5546 26.6437 31.3226 30.0592 31.295 30.1261C31.2556 30.2127 31.2123 30.256 31.1572 30.256C31.1139 30.256 30.9604 30.2796 30.8227 30.3032C30.6416 30.3386 30.5668 30.3701 30.5668 30.4134C30.5668 30.496 31.9248 31.826 32.3971 32.2077C34.2274 33.6715 36.0026 34.3877 38.3013 34.5844C40.1749 34.7418 41.9934 34.4467 43.8789 33.6754C45.5714 32.9829 47.0396 31.8772 47.8465 30.6888C48.0512 30.3898 48.0512 30.3347 47.8465 30.3347C47.6457 30.3347 47.5001 30.2638 47.4332 30.134C47.4017 30.0789 46.4728 27.5369 45.3667 24.4873C44.2567 21.4378 42.8476 17.554 42.2296 15.8541C40.0096 9.73915 39.6593 8.76722 39.6593 8.71607C39.6593 8.61769 39.8089 8.53506 40.3599 8.32651C40.667 8.20846 40.9622 8.08254 41.0212 8.04319C41.2298 7.90547 41.2889 7.52378 41.1117 7.42934C41.0094 7.37819 40.7221 7.41754 40.4269 7.53165C40.297 7.58281 40.1198 7.64183 40.0332 7.66544C39.6554 7.76775 38.6084 7.68511 37.8211 7.4923C37.333 7.37425 36.2978 7.0083 34.6801 6.37871C31.7398 5.23758 31.3265 5.13133 29.7796 5.13527C28.4492 5.13527 27.6816 5.25725 26.7881 5.59959C26.363 5.76486 26.2174 5.85536 25.8513 6.1859C25.2097 6.7604 24.6232 6.67776 24.6232 6.01276C24.6232 5.92226 24.7649 5.33989 24.9381 4.7221L25.2491 3.5967L24.6272 1.8063C24.1824 0.53138 23.9856 0.0119629 23.9384 0.00409317C23.9029 -0.00377655 23.8754 0.000160217 23.8754 0.0119629ZM10.213 15.5629C13.3108 24.0978 15.0112 28.7843 15.2119 29.3313C15.3497 29.7051 15.4127 29.9412 15.4127 30.0671V30.256H8.52048H1.62829L1.64404 30.1655C1.65978 30.0986 8.37484 11.4154 8.50867 11.077C8.53229 11.018 8.54016 11.0141 8.56771 11.0613C8.58346 11.0928 9.32345 13.1193 10.213 15.5629ZM39.986 12.7848C40.3206 13.7056 41.8872 17.9711 43.4616 22.268C45.0361 26.565 46.3311 30.1182 46.3429 30.1655L46.3586 30.256H39.3838C32.7593 30.256 32.4089 30.252 32.4247 30.1851C32.4365 30.1497 33.7315 26.5493 35.3059 22.1893C36.8804 17.8294 38.4312 13.5403 38.7461 12.6589C39.065 11.7775 39.3365 11.0692 39.3484 11.0849C39.3641 11.1006 39.6514 11.864 39.986 12.7848Z" fill="#BA9D57"/>
</svg>
