<svg width="16" height="31" viewBox="0 0 16 31" fill="none" xmlns="http://www.w3.org/2000/svg">
<path d="M11.9507 29.4734C9.36529 30.4225 6.84551 30.1997 4.33755 29.4692C3.38064 29.1905 2.43408 28.8656 1.50548 28.5037C0.633389 28.1638 0.316604 27.4742 0.602176 26.7247C0.874519 26.0099 1.51648 25.71 2.36495 25.9525C3.53421 26.2867 4.68665 26.6808 5.85957 27.0006C7.52397 27.4545 9.197 27.477 10.8365 26.8839C11.9118 26.4948 12.6404 25.8197 12.6864 24.5617C12.7314 23.3346 12.084 22.6101 11.0421 22.2133C9.64676 21.6818 8.21281 21.2524 6.80534 20.7514C5.77871 20.386 4.73191 20.0495 3.75666 19.5724C-0.29721 17.5892 -0.571882 13.0342 3.22525 10.4982C3.08551 10.3744 2.96268 10.2483 2.8231 10.1447C1.0643 8.83949 0.203273 7.1203 0.599062 4.93239C0.979989 2.82663 2.25736 1.41262 4.26875 0.668105C6.53109 -0.169299 8.81471 0.0481837 11.1034 0.530912C11.6223 0.640355 12.1433 0.742118 12.6576 0.870294C13.5854 1.10152 14.0637 1.76968 13.8919 2.56589C13.7112 3.40364 12.962 3.75579 11.9939 3.59789C10.3391 3.32798 8.67622 3.02661 7.00762 2.95708C6.18701 2.92289 5.25837 3.22579 4.53174 3.64266C2.82623 4.62113 2.777 6.87649 4.46718 7.87024C5.63475 8.55673 6.9693 8.968 8.2462 9.45812C9.55347 9.95989 10.9522 10.2703 12.1872 10.9049C16.0552 12.8926 16.6238 17.2229 13.4288 20.2944C15.1018 21.7644 15.8358 23.5771 15.2469 25.7937C14.7823 27.5422 13.6917 28.7546 11.9507 29.4734ZM10.1966 18.7781C10.3746 18.7207 10.5581 18.6764 10.7296 18.6037C11.8387 18.1338 12.5897 17.4087 12.6872 16.1125C12.7862 14.7951 12.1569 13.9689 11.0354 13.4591C10.1586 13.0605 9.27713 12.6155 8.34919 12.3992C6.90645 12.0629 5.48867 12.3006 4.24223 13.1594C3.3792 13.7541 2.98424 14.859 3.47099 15.7136C3.78736 16.269 4.35822 16.8207 4.94314 17.0556C6.61196 17.7258 8.34628 18.2332 10.1966 18.7781Z" fill="#BA9D57"/>
</svg>
