<svg width="17" height="16" viewBox="0 0 17 16" fill="none" xmlns="http://www.w3.org/2000/svg">
<path d="M8.5 13.5464L4.62219 15.8395C4.45088 15.9465 4.27179 15.9924 4.08491 15.9771C3.89802 15.9618 3.7345 15.9007 3.59434 15.7937C3.45418 15.6866 3.34516 15.5529 3.2673 15.3924C3.18943 15.2318 3.17385 15.0522 3.22058 14.8535L4.24843 10.5194L0.814465 7.60715C0.65873 7.46957 0.561396 7.31287 0.522462 7.13706C0.483528 6.96125 0.495208 6.78927 0.557502 6.6211C0.619796 6.45294 0.713237 6.31535 0.837826 6.20834C0.962414 6.10133 1.13372 6.03253 1.35175 6.00196L5.88365 5.61212L7.63567 1.53033C7.71354 1.34688 7.83423 1.20929 7.99775 1.11757C8.16128 1.02584 8.32869 0.97998 8.5 0.97998C8.67131 0.97998 8.83872 1.02584 9.00225 1.11757C9.16577 1.20929 9.28646 1.34688 9.36433 1.53033L11.1164 5.61212L15.6482 6.00196C15.8663 6.03253 16.0376 6.10133 16.1622 6.20834C16.2868 6.31535 16.3802 6.45294 16.4425 6.6211C16.5048 6.78927 16.5165 6.96125 16.4775 7.13706C16.4386 7.31287 16.3413 7.46957 16.1855 7.60715L12.7516 10.5194L13.7794 14.8535C13.8261 15.0522 13.8106 15.2318 13.7327 15.3924C13.6548 15.5529 13.5458 15.6866 13.4057 15.7937C13.2655 15.9007 13.102 15.9618 12.9151 15.9771C12.7282 15.9924 12.5491 15.9465 12.3778 15.8395L8.5 13.5464Z" fill="#BA9D57"/>
</svg>
